<svg width="48" height="48" viewBox="0 0 48 48" fill="none" xmlns="http://www.w3.org/2000/svg">
<rect width="48" height="48" rx="24" fill="#FF4D4F" fill-opacity="0.2"/>
<path d="M34.2 29.6335L26.0016 15.3957C25.7967 15.0469 25.5042 14.7576 25.1532 14.5567C24.8021 14.3557 24.4046 14.25 24 14.25C23.5955 14.25 23.198 14.3557 22.8469 14.5567C22.4958 14.7576 22.2033 15.0469 21.9985 15.3957L13.8 29.6335C13.6029 29.9709 13.499 30.3546 13.499 30.7454C13.499 31.1361 13.6029 31.5199 13.8 31.8572C14.0023 32.2082 14.2943 32.499 14.646 32.6998C14.9977 32.9006 15.3966 33.0043 15.8016 33.0001H32.1985C32.6032 33.0039 33.0016 32.9001 33.353 32.6993C33.7044 32.4985 33.9961 32.2079 34.1982 31.8572C34.3956 31.52 34.4998 31.1364 34.5001 30.7456C34.5004 30.3549 34.3969 29.9711 34.2 29.6335ZM23.25 21.7501C23.25 21.5511 23.329 21.3604 23.4697 21.2197C23.6104 21.0791 23.8011 21.0001 24 21.0001C24.1989 21.0001 24.3897 21.0791 24.5304 21.2197C24.671 21.3604 24.75 21.5511 24.75 21.7501V25.5001C24.75 25.699 24.671 25.8897 24.5304 26.0304C24.3897 26.171 24.1989 26.2501 24 26.2501C23.8011 26.2501 23.6104 26.171 23.4697 26.0304C23.329 25.8897 23.25 25.699 23.25 25.5001V21.7501ZM24 30.0001C23.7775 30.0001 23.56 29.9341 23.375 29.8105C23.19 29.6868 23.0458 29.5111 22.9607 29.3056C22.8755 29.1 22.8532 28.8738 22.8966 28.6556C22.9401 28.4374 23.0472 28.2369 23.2045 28.0796C23.3619 27.9222 23.5623 27.8151 23.7806 27.7717C23.9988 27.7283 24.225 27.7505 24.4305 27.8357C24.6361 27.9208 24.8118 28.065 24.9354 28.25C25.059 28.4351 25.125 28.6526 25.125 28.8751C25.125 29.1734 25.0065 29.4596 24.7955 29.6706C24.5845 29.8815 24.2984 30.0001 24 30.0001Z" fill="#D10F0F"/>
</svg>
