<svg width="48" height="48" viewBox="0 0 48 48" fill="none" xmlns="http://www.w3.org/2000/svg">
<rect width="48" height="48" rx="24" fill="#5A4FFF" fill-opacity="0.2"/>
<path d="M30.75 19.0912V15.75C30.75 15.3522 30.592 14.9706 30.3107 14.6893C30.0294 14.408 29.6478 14.25 29.25 14.25H18.75C18.3522 14.25 17.9706 14.408 17.6893 14.6893C17.408 14.9706 17.25 15.3522 17.25 15.75V19.125C17.2507 19.3578 17.3053 19.5874 17.4096 19.7956C17.5138 20.0038 17.6649 20.185 17.8509 20.325L22.7503 24L17.85 27.675C17.6641 27.8151 17.5132 27.9963 17.409 28.2045C17.3049 28.4127 17.2505 28.6422 17.25 28.875V32.25C17.25 32.6478 17.408 33.0294 17.6893 33.3107C17.9706 33.592 18.3522 33.75 18.75 33.75H29.25C29.6478 33.75 30.0294 33.592 30.3107 33.3107C30.592 33.0294 30.75 32.6478 30.75 32.25V28.9088C30.75 28.6767 30.6962 28.4478 30.5927 28.24C30.4892 28.0323 30.339 27.8514 30.1537 27.7116L25.2431 24L30.1537 20.2884C30.3387 20.1484 30.4888 19.9674 30.5922 19.7597C30.6956 19.5521 30.7496 19.3233 30.75 19.0912Z" fill="#0148FE"/>
</svg>
