<svg width="48" height="48" viewBox="0 0 48 48" fill="none" xmlns="http://www.w3.org/2000/svg">
<rect width="48" height="48" rx="24" fill="#A0D911" fill-opacity="0.2"/>
<path d="M24 14.25C22.0716 14.25 20.1866 14.8218 18.5832 15.8932C16.9798 16.9645 15.7301 18.4873 14.9922 20.2688C14.2542 22.0504 14.0611 24.0108 14.4373 25.9021C14.8136 27.7934 15.7422 29.5307 17.1057 30.8943C18.4693 32.2579 20.2066 33.1865 22.0979 33.5627C23.9892 33.9389 25.9496 33.7458 27.7312 33.0078C29.5127 32.2699 31.0355 31.0202 32.1068 29.4168C33.1782 27.8134 33.75 25.9284 33.75 24C33.7473 21.415 32.7192 18.9366 30.8913 17.1087C29.0634 15.2808 26.585 14.2527 24 14.25ZM28.2806 22.2806L23.0306 27.5306C22.961 27.6004 22.8783 27.6557 22.7872 27.6934C22.6962 27.7312 22.5986 27.7506 22.5 27.7506C22.4014 27.7506 22.3038 27.7312 22.2128 27.6934C22.1218 27.6557 22.039 27.6004 21.9694 27.5306L19.7194 25.2806C19.5786 25.1399 19.4996 24.949 19.4996 24.75C19.4996 24.551 19.5786 24.3601 19.7194 24.2194C19.8601 24.0786 20.051 23.9996 20.25 23.9996C20.449 23.9996 20.6399 24.0786 20.7806 24.2194L22.5 25.9397L27.2194 21.2194C27.2891 21.1497 27.3718 21.0944 27.4628 21.0567C27.5539 21.019 27.6515 20.9996 27.75 20.9996C27.8486 20.9996 27.9461 21.019 28.0372 21.0567C28.1282 21.0944 28.2109 21.1497 28.2806 21.2194C28.3503 21.2891 28.4056 21.3718 28.4433 21.4628C28.481 21.5539 28.5004 21.6515 28.5004 21.75C28.5004 21.8485 28.481 21.9461 28.4433 22.0372C28.4056 22.1282 28.3503 22.2109 28.2806 22.2806Z" fill="#12A610"/>
</svg>
