<svg width="24" height="24" viewBox="0 0 24 24" fill="none" xmlns="http://www.w3.org/2000/svg">
<rect width="24" height="24" rx="12" fill="#434355"/>
<g clip-path="url(#clip0_3563_42310)">
<path d="M10.0605 7.61844C9.33994 8.43136 8.75794 9.61092 8.37784 11.0295C7.99774 12.448 7.91199 13.7606 8.12957 14.8249C8.34715 15.8892 8.86547 16.5953 9.5546 16.78L11.7279 17.3623C12.4171 17.547 13.2229 17.1893 13.9396 16.3817C14.6563 15.574 15.2422 14.3892 15.6223 12.9706C16.0024 11.5521 16.0881 10.2395 15.8706 9.17524C15.653 8.11094 15.1347 7.40476 14.4455 7.22011L12.2722 6.63776C11.5831 6.45311 10.7773 6.8108 10.0605 7.61844ZM13.3447 12.7486L14.7935 13.1368C14.535 13.9895 14.2141 14.68 13.8721 15.2192L12.4549 14.8395C12.8341 14.1806 13.1331 13.4787 13.3456 12.7488L13.3447 12.7486ZM13.5388 12.0241C13.7197 11.2857 13.8117 10.5284 13.8128 9.76816L15.2304 10.148C15.257 10.786 15.1896 11.5444 14.9872 12.4122L13.5388 12.0241ZM11.922 16.6379L11.0858 16.4138C11.336 16.2365 11.5645 16.0302 11.7663 15.7993C11.8505 15.704 11.9333 15.6014 12.0135 15.4977L13.3904 15.8667C12.8434 16.4883 12.2974 16.7385 11.922 16.6379ZM15.1375 9.34665L13.7606 8.97772C13.7433 8.84644 13.7225 8.7176 13.6972 8.5929C13.6379 8.29199 13.5432 7.99914 13.4151 7.72047L14.2514 7.94455C14.6268 8.04513 14.9745 8.53479 15.1375 9.34665Z" fill="#E9E9E9"/>
</g>
<defs>
<clipPath id="clip0_3563_42310">
<rect width="12" height="12" fill="white" transform="translate(4.65137 16.2427) rotate(-75)"/>
</clipPath>
</defs>
</svg>
