<svg width="24" height="24" viewBox="0 0 24 24" fill="none" xmlns="http://www.w3.org/2000/svg">
<path d="M0 2C0 0.89543 0.895431 0 2 0H22C23.1046 0 24 0.895431 24 2V22C24 23.1046 23.1046 24 22 24H2C0.89543 24 0 23.1046 0 22V2Z" fill="#836EF9"/>
<path d="M11.9999 4C9.68975 4 4 9.6896 4 11.9999C4 14.3103 9.68975 20 11.9999 20C14.3101 20 20 14.3102 20 11.9999C20 9.6897 14.3102 4 11.9999 4ZM10.7533 16.5746C9.7791 16.3092 7.1599 11.7275 7.42541 10.7533C7.69092 9.77905 12.2725 7.1599 13.2466 7.4254C14.2209 7.69087 16.8401 12.2725 16.5746 13.2467C16.3091 14.2209 11.7275 16.8401 10.7533 16.5746Z" fill="white"/>
</svg>
